{"title":"CMT Crossroads - John Mayer and Keith Urban (2010) [HDTVRip] [.m","uid":7206378,"size":1708793094,"categoryP":"video","categoryS":"tv_shows","magnet":"?xt=urn:btih:6fcd450c4cd85527881a7fbf591f4d63025e0758&amp;dn=CMT+Crossroads+-+John+Mayer+and+Keith+Urban+%282010%29+%5BHDTVRip%5D+%5B.m&amp;tr=udp%3A%2F%2Ftracker.openbittorrent.com%3A80&amp;tr=udp%3A%2F%2Fopen.demonii.com%3A1337&amp;tr=udp%3A%2F%2Ftracker.coppersurfer.tk%3A6969&amp;tr=udp%3A%2F%2Fexodus.desync.com%3A6969","seeders":5,"leechers":1,"uploader":"qculfj","files":2,"time":1335109245,"description":"General:\n\nFormat : Matroska\nFile size : 1.59 GiB\nDuration : 41mn 36s\nOverall bit rate : 5 477 Kbps\nEncoded date : UTC 2010-10-11 09:19:51\nWriting application : mkvmerge v4.0.0\nWriting library : libebml v1.0.0 + libmatroska v1.0.0\n\nVideo:\n\nID : 1\nFormat : AVC\nFormat/Info : Advanced Video Codec\nFormat profile : &lt;a class=&quot;__cf_email__&quot; href=&quot;/cdn-cgi/l/email-protection&quot; data-cfemail=&quot;8dcfecfee8e1e4e3e8cdc1bea3bc&quot;&gt;[email&amp;#160;protected]&lt;/a&gt;&lt;script cf-hash='f9e31' type=&quot;text/javascript&quot;&gt;\n/* &lt;![CDATA[ */!function(){try{var t=&quot;currentScript&quot;in document?document.currentScript:function(){for(var t=document.getElementsByTagName(&quot;script&quot;),e=t.length;e--;)if(t[e].getAttribute(&quot;cf-hash&quot;))return t[e]}();if(t&amp;&amp;t.previousSibling){var e,r,n,i,c=t.previousSibling,a=c.getAttribute(&quot;data-cfemail&quot;);if(a){for(e=&quot;&quot;,r=parseInt(a.substr(0,2),16),n=2;a.length-n;n+=2)i=parseInt(a.substr(n,2),16)^r,e+=String.fromCharCode(i);e=document.createTextNode(e),c.parentNode.replaceChild(e,c)}}}catch(u){}}();/* ]]&gt; */&lt;/script&gt;\nFormat settings, CABAC : No\nFormat settings, ReFrames : 1 frame\nMuxing mode : Container profile=&lt;a class=&quot;__cf_email__&quot; href=&quot;/cdn-cgi/l/email-protection&quot; data-cfemail=&quot;a5f0cbcecbcad2cbe5968b94&quot;&gt;[email&amp;#160;protected]&lt;/a&gt;&lt;script cf-hash='f9e31' type=&quot;text/javascript&quot;&gt;\n/* &lt;![CDATA[ */!function(){try{var t=&quot;currentScript&quot;in document?document.currentScript:function(){for(var t=document.getElementsByTagName(&quot;script&quot;),e=t.length;e--;)if(t[e].getAttribute(&quot;cf-hash&quot;))return t[e]}();if(t&amp;&amp;t.previousSibling){var e,r,n,i,c=t.previousSibling,a=c.getAttribute(&quot;data-cfemail&quot;);if(a){for(e=&quot;&quot;,r=parseInt(a.substr(0,2),16),n=2;a.length-n;n+=2)i=parseInt(a.substr(n,2),16)^r,e+=String.fromCharCode(i);e=document.createTextNode(e),c.parentNode.replaceChild(e,c)}}}catch(u){}}();/* ]]&gt; */&lt;/script&gt;\nCodec ID : V_MPEG4/ISO/AVC\nDuration : 41mn 36s\nBit rate : 4 920 Kbps\nNominal bit rate : 5 000 Kbps\nWidth : 1 280 pixels\nHeight : 720 pixels\nDisplay aspect ratio : 16:9\nFrame rate : 30.000 fps\nResolution : 24 bits\nColorimetry : 4:2:0\nScan type : Progressive\nBits/(Pixel*Frame) : 0.178\nStream size : 1.43 GiB (90%)\n\n\nAudio:\n\nID : 2\nFormat : AC-3\nFormat/Info : Audio Coding 3\nCodec ID : A_AC3\nDuration : 41mn 36s\nBit rate mode : Constant\nBit rate : 448 Kbps\nChannel(s) : 2 channels\nChannel positions : L R\nSampling rate : 44.1 KHz\nStream size : 133 MiB (8%)\n\n\n\n\nTracklist:\n\nIf Ever I Could Love\n'Til Summer Comes Around\nSweet Thing\nPerfectly Lonely\nGravity\nFaith","torrent":{"xt":"urn:btih:6fcd450c4cd85527881a7fbf591f4d63025e0758","amp;dn":"CMT+Crossroads+-+John+Mayer+and+Keith+Urban+%282010%29+%5BHDTVRip%5D+%5B.m","amp;tr":["udp%3A%2F%2Ftracker.openbittorrent.com%3A80","udp%3A%2F%2Fopen.demonii.com%3A1337","udp%3A%2F%2Ftracker.coppersurfer.tk%3A6969","udp%3A%2F%2Fexodus.desync.com%3A6969"],"infoHash":"6fcd450c4cd85527881a7fbf591f4d63025e0758","infoHashBuffer":{"type":"Buffer","data":[111,205,69,12,76,216,85,39,136,26,127,191,89,31,77,99,2,94,7,88]},"announce":[],"urlList":[]}}